# xmcd
#
# Track frame offsets:
#	150
#	13671
#	26269
#	35689
#	50579
#	65038
#	77799
#	89860
#	101345
#	111788
#	126684
#	137427
#	150760
#	163476
#	177485
#	189227
#	201653
#	214353
#	226113
#	237608
#
# Disc length: 3387 seconds
#
# Revision: 1
# Processed by: cddbd v1.4PL0 Copyright (c) Steve Scherf et al.
# Submitted via: audiograbber 1.82.01
#
DISCID=240d3914
DTITLE=Johnny Paycheck - 20 Greatest Hits
DYEAR=1994
DGENRE=Country
TTITLE0=She's All I Got, (Don't Take Her)
TTITLE1=Take This Job And Shove It
TTITLE2=Mr. Lovemaker
TTITLE3=Someone To Give My Love To
TTITLE4=I'm The Only Hell Mama Ever Raised
TTITLE5=Song and Dance Man
TTITLE6=Something About You I Love
TTITLE7=For A Minute There
TTITLE8=A-11
TTITLE9=Green Green Grass Of Home
TTITLE10=Don't Monkey With Another's Monkey
TTITLE11=Heaven's Almost As big As Texas
TTITLE12=Close All The Honky Tonks
TTITLE13=Almost Persuaded
TTITLE14=Release Me
TTITLE15=All The Time
TTITLE16=Crazy Arms
TTITLE17=Heartaches By The Number
TTITLE18=Apartment Number Nine
TTITLE19=Danny Boy
EXTD=
EXTT0=
EXTT1=
EXTT2=
EXTT3=
EXTT4=
EXTT5=
EXTT6=
EXTT7=
EXTT8=
EXTT9=
EXTT10=
EXTT11=
EXTT12=
EXTT13=
EXTT14=
EXTT15=
EXTT16=
EXTT17=
EXTT18=
EXTT19=
PLAYORDER=
